<svg width="138" height="80" viewBox="0 0 138 80" fill="none" xmlns="http://www.w3.org/2000/svg">
<path fill-rule="evenodd" clip-rule="evenodd" d="M149 37.25C149 32.3583 148.036 27.5144 146.165 22.995C144.293 18.4757 141.549 14.3693 138.09 10.9103C134.631 7.45129 130.524 4.70747 126.005 2.83549C121.486 0.963499 116.642 0 111.75 0V37.25C111.75 27.3707 107.825 17.896 100.84 10.9103C93.854 3.92454 84.3793 0 74.5 0C64.6207 0 55.146 3.92454 48.1603 10.9103C41.1785 17.892 37.2545 27.3599 37.25 37.2331L37.25 4.88475e-06C32.3583 4.24327e-06 27.5144 0.963503 22.9951 2.83549C18.4757 4.70748 14.3693 7.45129 10.9103 10.9103C7.4513 14.3693 4.70748 18.4757 2.83549 22.995C0.963505 27.5144 5.3124e-06 32.3583 4.88475e-06 37.25L37.2331 37.25C27.3599 37.2545 17.892 41.1785 10.9103 48.1603C3.92454 55.146 0 64.6207 0 74.5C-1.94228e-06 84.3793 3.92454 93.854 10.9103 100.84C17.896 107.825 27.3707 111.75 37.25 111.75H3.2565e-06C2.82885e-06 116.642 0.963502 121.486 2.83549 126.005C4.70748 130.524 7.45129 134.631 10.9103 138.09C14.3693 141.549 18.4757 144.293 22.995 146.165C27.5144 148.036 32.3583 149 37.25 149L37.25 111.75C37.25 121.629 41.1745 131.104 48.1603 138.09C55.146 145.075 64.6207 149 74.5 149C84.3793 149 93.854 145.075 100.84 138.09C107.825 131.104 111.75 121.629 111.75 111.75V149C116.642 149 121.486 148.036 126.005 146.165C130.524 144.293 134.631 141.549 138.09 138.09C141.549 134.631 144.293 130.524 146.165 126.005C148.036 121.486 149 116.642 149 111.75H111.774C121.645 111.744 131.11 107.82 138.09 100.84C145.075 93.854 149 84.3793 149 74.5C149 64.6207 145.075 55.146 138.09 48.1603C131.104 41.1745 121.629 37.25 111.75 37.25H149ZM74.5 111.75L111.75 111.75V74.5V37.25H74.5L37.25 37.25V74.5L37.25 111.75L74.5 111.75ZM74.5 111.75C53.9274 111.75 37.25 95.0726 37.25 74.5C37.25 53.9274 53.9274 37.25 74.5 37.25C95.0726 37.25 111.75 53.9274 111.75 74.5C111.75 95.0726 95.0726 111.75 74.5 111.75Z" fill="#8DAEF2"/>
</svg>
