<svg width="150" height="56" viewBox="0 0 150 56" fill="none" xmlns="http://www.w3.org/2000/svg">
<path fill-rule="evenodd" clip-rule="evenodd" d="M5.85786 59.8755C9.60859 67.8458 14.6957 72.3234 20 72.3234L20 29.8234V-12.6766C14.6957 -12.6766 9.60859 -8.19891 5.85786 -0.22861C2.10714 7.74169 9.22364e-08 18.5517 0 29.8234C-9.2236e-08 41.0951 2.10714 51.9052 5.85786 59.8755ZM49 72.3234C41.3087 72.3234 33.9325 67.8458 28.4939 59.8755C23.0553 51.9052 20 41.0951 20 29.8234C20 18.5517 23.0553 7.74169 28.4939 -0.22861C33.9325 -8.19891 41.3087 -12.6766 49 -12.6766L49 29.8234L49 72.3234ZM91 29.8234V72.3234C79.8609 72.3234 69.178 67.8458 61.3015 59.8755C53.425 51.9052 49 41.0951 49 29.8234C49 18.5517 53.425 7.74169 61.3015 -0.228611C69.178 -8.19891 79.8609 -12.6766 91 -12.6766L91 29.8234ZM91 29.8234C91 18.5517 97.2687 7.74168 108.427 -0.228611C119.586 -8.19891 134.72 -12.6766 150.5 -12.6766V29.8234V72.3234C134.72 72.3234 119.586 67.8458 108.427 59.8755C97.2687 51.9052 91 41.0951 91 29.8234Z" fill="#275AF2"/>
</svg>
