<svg width="157" height="56" viewBox="0 0 157 56" fill="none" xmlns="http://www.w3.org/2000/svg">
<path fill-rule="evenodd" clip-rule="evenodd" d="M90.6343 -82.5951C91.1159 -82.1135 91.5499 -81.3497 91.7614 -80.1247C91.9734 -78.8969 91.9309 -77.3582 91.5891 -75.5244C91.2937 -73.9399 90.785 -72.1866 90.0724 -70.2885C78.5883 -65.8751 62.4956 -54.4563 46.858 -38.8187C31.2204 -23.1811 19.8015 -7.08845 15.3882 4.39572C13.4901 5.10829 11.7368 5.61697 10.1523 5.91237C8.31851 6.25426 6.77975 6.29668 5.55201 6.08471C4.32701 5.8732 3.56319 5.43917 3.08163 4.95761C2.60006 4.47605 2.16603 3.71223 1.95453 2.48723C1.74255 1.25949 1.78498 -0.27927 2.12687 -2.11309C2.80938 -5.77398 4.6305 -10.3362 7.47435 -15.5036C13.153 -25.8221 22.7943 -38.349 35.061 -50.6157C47.3277 -62.8824 59.8546 -72.5237 70.173 -78.2023C75.3405 -81.0462 79.9027 -82.8673 83.5636 -83.5498C85.3974 -83.8917 86.9362 -83.9341 88.1639 -83.7222C89.3889 -83.5107 90.1527 -83.0766 90.6343 -82.5951ZM14.7302 6.22954C9.0394 8.11946 4.66362 8.08238 2.31024 5.729C-4.82554 -1.40678 9.33447 -27.1362 33.9375 -51.7392C58.5405 -76.3422 84.2699 -90.5022 91.4057 -83.3665C93.7591 -81.0131 93.7961 -76.6373 91.9062 -70.9465C97.597 -72.8364 101.973 -72.7994 104.326 -70.446C106.68 -68.0926 106.717 -63.7168 104.827 -58.0261C110.517 -59.916 114.893 -59.8789 117.247 -57.5255C119.6 -55.1721 119.637 -50.7964 117.747 -45.1056C123.438 -46.9955 127.814 -46.9584 130.167 -44.6051C132.52 -42.2517 132.558 -37.8759 130.668 -32.1851C136.358 -34.075 140.734 -34.038 143.088 -31.6846C145.441 -29.3312 145.478 -24.9554 143.588 -19.2647C149.279 -21.1546 153.655 -21.1175 156.008 -18.7641C158.361 -16.4108 158.398 -12.035 156.509 -6.34421C162.199 -8.23413 166.575 -8.19705 168.928 -5.84367C171.282 -3.49028 171.319 0.885493 169.429 6.57629C175.12 4.68634 179.496 4.7234 181.849 7.0768C184.202 9.43018 184.239 13.806 182.35 19.4967C188.04 17.6068 192.416 17.6439 194.769 19.9973C197.123 22.3506 197.16 26.7264 195.27 32.4172C200.961 30.5273 205.337 30.5643 207.69 32.9177C214.826 40.0535 200.666 65.7829 176.063 90.3859C151.46 114.989 125.73 129.149 118.594 122.013C116.241 119.66 116.204 115.284 118.094 109.593C112.403 111.483 108.027 111.446 105.674 109.093C103.321 106.739 103.284 102.364 105.173 96.6728C99.4827 98.5627 95.1069 98.5256 92.7536 96.1723C90.4002 93.8189 90.3631 89.4431 92.253 83.7523C86.5622 85.6422 82.1864 85.6052 79.833 83.2518C77.4796 80.8984 77.4426 76.5226 79.3325 70.8319C73.6417 72.7218 69.2659 72.6847 66.9126 70.3313C64.5592 67.9779 64.5221 63.6022 66.412 57.9114C60.7212 59.8013 56.3455 59.7642 53.9921 57.4109C51.6387 55.0575 51.6016 50.6817 53.4916 44.9909C47.8008 46.8809 43.425 46.8438 41.0716 44.4904C38.7183 42.137 38.6812 37.7612 40.5711 32.0705C34.8803 33.9604 30.5046 33.9233 28.1512 31.5699C25.7978 29.2166 25.7607 24.8408 27.6506 19.15C21.9599 21.0399 17.5841 21.0029 15.2307 18.6495C12.8773 16.2961 12.8403 11.9203 14.7302 6.22954ZM119.928 108.935C119.215 110.833 118.707 112.587 118.411 114.171C118.069 116.005 118.027 117.544 118.239 118.771C118.45 119.996 118.884 120.76 119.366 121.242C119.847 121.723 120.611 122.157 121.836 122.369C123.064 122.581 124.603 122.538 126.437 122.197C130.097 121.514 134.66 119.693 139.827 116.849C150.146 111.17 162.672 101.529 174.939 89.2624C187.206 76.9957 196.847 64.4688 202.526 54.1504C205.37 48.983 207.191 44.4207 207.873 40.7598C208.215 38.926 208.258 37.3872 208.046 36.1595C207.834 34.9345 207.4 34.1707 206.919 33.6891C206.437 33.2075 205.673 32.7735 204.448 32.562C203.22 32.35 201.682 32.3925 199.848 32.7344C198.263 33.0298 196.51 33.5384 194.612 34.251C190.199 45.7352 178.78 61.8278 163.142 77.4655C147.505 93.1031 131.412 104.522 119.928 108.935ZM192.648 35.0389C191.822 36.9802 190.804 39.0513 189.605 41.2299C183.927 51.5483 174.285 64.0752 162.019 76.3419C149.752 88.6087 137.225 98.2499 126.907 103.929C124.728 105.128 122.657 106.145 120.716 106.972C121.542 105.03 122.56 102.959 123.759 100.781C129.437 90.4621 139.079 77.9352 151.345 65.6685C163.612 53.4018 176.139 43.7605 186.457 38.0818C188.636 36.8828 190.707 35.8656 192.648 35.0389ZM193.436 33.0752C194.149 31.1771 194.657 29.4238 194.953 27.8394C195.295 26.0055 195.337 24.4668 195.125 23.239C194.914 22.014 194.48 21.2502 193.998 20.7686C193.517 20.2871 192.753 19.8531 191.528 19.6416C190.3 19.4296 188.761 19.472 186.927 19.8139C185.343 20.1093 183.59 20.618 181.692 21.3305C177.282 32.8046 165.879 48.8791 150.263 64.5038C165.888 48.8873 181.962 37.4847 193.436 33.0752ZM150.181 64.5861C134.564 80.2108 123.161 96.2854 118.752 107.759C116.854 108.472 115.101 108.981 113.516 109.276C111.682 109.618 110.144 109.66 108.916 109.448C107.691 109.237 106.927 108.803 106.445 108.321C105.964 107.84 105.53 107.076 105.318 105.851C105.106 104.623 105.149 103.084 105.491 101.251C105.786 99.6662 106.295 97.9129 107.007 96.0147C118.481 91.6053 134.556 80.2027 150.181 64.5861ZM182.032 14.9189C181.737 16.5033 181.228 18.2566 180.516 20.1548C169.032 24.5681 152.939 35.9869 137.301 51.6245C121.664 67.2622 110.245 83.3548 105.832 94.839C103.933 95.5516 102.18 96.0602 100.596 96.3556C98.7618 96.6975 97.2231 96.7399 95.9953 96.528C94.7703 96.3165 94.0065 95.8824 93.5249 95.4009C93.0434 94.9193 92.6094 94.1555 92.3979 92.9305C92.1859 91.7027 92.2283 90.164 92.5702 88.3302C92.8656 86.7457 93.3743 84.9924 94.0869 83.0942C105.571 78.6809 121.664 67.2621 137.301 51.6245C152.939 35.9869 164.358 19.8943 168.771 8.41011C170.669 7.69752 172.422 7.18883 174.007 6.89343C175.841 6.55154 177.379 6.50912 178.607 6.72109C179.832 6.9326 180.596 7.36662 181.078 7.84818C181.559 8.32976 181.993 9.09357 182.205 10.3186C182.417 11.5463 182.374 13.0851 182.032 14.9189ZM110.838 87.8601C109.639 90.0387 108.622 92.1098 107.795 94.0511C109.737 93.2243 111.808 92.2071 113.986 91.0081C124.305 85.3295 136.832 75.6882 149.098 63.4215C161.365 51.1548 171.006 38.6279 176.685 28.3094C177.884 26.1308 178.901 24.0597 179.728 22.1185C177.787 22.9452 175.715 23.9624 173.537 25.1614C163.218 30.8401 150.692 40.4813 138.425 52.748C126.158 65.0148 116.517 77.5417 110.838 87.8601ZM166.807 9.19803C165.981 11.1393 164.963 13.2104 163.764 15.389C158.086 25.7074 148.444 38.2343 136.178 50.501C123.911 62.7677 111.384 72.409 101.066 78.0877C98.8871 79.2866 96.816 80.3038 94.8748 81.1306C95.7015 79.1893 96.7187 77.1182 97.9177 74.9396C103.596 64.6212 113.238 52.0943 125.504 39.8276C137.771 27.5609 150.298 17.9196 160.616 12.2409C162.795 11.0419 164.866 10.0247 166.807 9.19803ZM167.595 7.23434C156.111 11.6477 140.018 23.0665 124.381 38.7041C108.743 54.3417 97.3244 70.4343 92.9111 81.9185C91.0129 82.6311 89.2596 83.1398 87.6751 83.4352C85.8413 83.777 84.3025 83.8195 83.0748 83.6075C81.8498 83.396 81.086 82.962 80.6044 82.4804C80.1228 81.9988 79.6888 81.235 79.4773 80.01C79.2653 78.7823 79.3078 77.2435 79.6496 75.4097C79.945 73.8252 80.4537 72.0719 81.1663 70.1738C92.6505 65.7605 108.743 54.3417 124.381 38.7041C140.018 23.0664 151.437 6.97376 155.851 -4.5104C157.749 -5.22297 159.502 -5.73165 161.086 -6.02704C162.92 -6.36893 164.459 -6.41136 165.687 -6.19938C166.912 -5.98788 167.676 -5.55384 168.157 -5.07228C168.639 -4.59072 169.073 -3.82691 169.284 -2.6019C169.496 -1.37416 169.454 0.164608 169.112 1.99842C168.816 3.58289 168.308 5.3362 167.595 7.23434ZM156.191 -10.922C155.896 -9.33759 155.387 -7.58429 154.675 -5.68616C143.201 -1.27672 127.126 10.1259 111.501 25.7424C127.118 10.1177 138.521 -5.95678 142.93 -17.4309C144.828 -18.1434 146.581 -18.6521 148.166 -18.9475C150 -19.2894 151.539 -19.3318 152.766 -19.1198C153.991 -18.9083 154.755 -18.4743 155.237 -17.9927C155.718 -17.5112 156.152 -16.7474 156.364 -15.5224C156.576 -14.2946 156.533 -12.7559 156.191 -10.922ZM68.2458 57.2534C79.7199 52.8439 95.7944 41.4413 111.419 25.8247C95.8026 41.4494 84.4 57.524 79.9905 68.998C78.0924 69.7106 76.3391 70.2193 74.7547 70.5147C72.9208 70.8566 71.3821 70.899 70.1543 70.687C68.9293 70.4755 68.1655 70.0415 67.6839 69.5599C67.2024 69.0784 66.7684 68.3146 66.5569 67.0896C66.3449 65.8618 66.3873 64.3231 66.7292 62.4892C67.0246 60.9048 67.5333 59.1515 68.2458 57.2534ZM84.9971 62.0191C83.7981 64.1978 82.7809 66.2688 81.9542 68.2101C83.8955 67.3834 85.9666 66.3662 88.1452 65.1672C98.4636 59.4885 110.991 49.8473 123.257 37.5805C135.524 25.3138 145.165 12.7869 150.844 2.46851C152.043 0.289885 153.06 -1.78118 153.887 -3.72248C151.946 -2.89576 149.874 -1.87855 147.696 -0.679554C137.377 4.99911 124.851 14.6404 112.584 26.9071C100.317 39.1738 90.6758 51.7007 84.9971 62.0191ZM140.966 -16.6429C140.14 -14.7016 139.122 -12.6306 137.923 -10.4519C132.245 -0.133541 122.603 12.3934 110.337 24.6601C98.07 36.9268 85.5432 46.5681 75.2247 52.2467C73.0461 53.4457 70.9751 54.4629 69.0338 55.2897C69.8605 53.3484 70.8777 51.2773 72.0767 49.0987C77.7553 38.7803 87.3966 26.2534 99.6633 13.9866C111.93 1.71992 124.457 -7.92135 134.775 -13.6C136.954 -14.799 139.025 -15.8162 140.966 -16.6429ZM141.754 -18.6066C142.467 -20.5048 142.976 -22.258 143.271 -23.8425C143.613 -25.6763 143.655 -27.2151 143.443 -28.4428C143.232 -29.6678 142.798 -30.4316 142.316 -30.9132C141.835 -31.3948 141.071 -31.8288 139.846 -32.0403C138.618 -32.2523 137.079 -32.2099 135.245 -31.868C133.661 -31.5726 131.908 -31.0639 130.01 -30.3513C125.6 -18.8772 114.197 -2.80273 98.581 12.822C114.206 -2.79454 130.28 -14.1972 141.754 -18.6066ZM98.4987 12.9043C82.8822 28.529 71.4795 44.6035 67.0701 56.0776C65.1719 56.7902 63.4186 57.2988 61.8342 57.5942C60.0004 57.9361 58.4616 57.9785 57.2339 57.7666C56.0089 57.5551 55.245 57.121 54.7635 56.6395C54.2819 56.1579 53.8479 55.3941 53.6364 54.1691C53.4244 52.9413 53.4668 51.4026 53.8087 49.5688C54.1041 47.9843 54.6128 46.231 55.3254 44.3329C66.7995 39.9234 82.874 28.5208 98.4987 12.9043ZM130.35 -36.763C130.055 -35.1785 129.546 -33.4252 128.834 -31.5271C117.36 -27.1176 101.285 -15.715 85.6605 -0.0984805C101.277 -15.7232 112.68 -31.7977 117.089 -43.2718C118.987 -43.9844 120.741 -44.493 122.325 -44.7884C124.159 -45.1303 125.698 -45.1727 126.925 -44.9608C128.15 -44.7493 128.914 -44.3152 129.396 -43.8337C129.877 -43.3521 130.311 -42.5883 130.523 -41.3633C130.735 -40.1355 130.692 -38.5968 130.35 -36.763ZM42.4049 31.4124C53.879 27.003 69.9535 15.6003 85.5782 -0.0161775C69.9617 15.6085 58.559 31.683 54.1496 43.1571C52.2515 43.8697 50.4982 44.3784 48.9137 44.6738C47.0799 45.0157 45.5411 45.0581 44.3134 44.8461C43.0884 44.6346 42.3246 44.2006 41.843 43.719C41.3615 43.2374 40.9274 42.4736 40.7159 41.2486C40.504 40.0209 40.5464 38.4821 40.8883 36.6483C41.1837 35.0638 41.6923 33.3106 42.4049 31.4124ZM59.1562 36.1782C57.9572 38.3568 56.94 40.4279 56.1133 42.3692C58.0546 41.5425 60.1257 40.5253 62.3043 39.3263C72.6227 33.6476 85.1496 24.0063 97.4163 11.7396C109.683 -0.527108 119.324 -13.054 125.003 -23.3724C126.202 -25.551 127.219 -27.6221 128.046 -29.5634C126.105 -28.7367 124.034 -27.7195 121.855 -26.5205C111.536 -20.8418 99.0096 -11.2005 86.7429 1.06619C74.4762 13.3329 64.8349 25.8598 59.1562 36.1782ZM115.125 -42.4839C114.299 -40.5426 113.282 -38.4715 112.083 -36.2929C106.404 -25.9745 96.7626 -13.4476 84.4959 -1.18084C72.2291 11.0859 59.7022 20.7272 49.3838 26.4058C47.2052 27.6048 45.1341 28.622 43.1928 29.4487C44.0196 27.5074 45.0368 25.4364 46.2357 23.2578C51.9144 12.9393 61.5557 0.412444 73.8224 -11.8543C86.0891 -24.121 98.616 -33.7623 108.934 -39.4409C111.113 -40.6399 113.184 -41.6571 115.125 -42.4839ZM115.913 -44.4475C116.626 -46.3457 117.135 -48.099 117.43 -49.6834C117.772 -51.5172 117.814 -53.056 117.602 -54.2837C117.391 -55.5088 116.957 -56.2726 116.475 -56.7541C115.994 -57.2357 115.23 -57.6697 114.005 -57.8812C112.777 -58.0932 111.238 -58.0508 109.405 -57.7089C107.82 -57.4135 106.067 -56.9048 104.169 -56.1922C99.7607 -44.7221 88.3644 -28.6547 72.7562 -13.0351C88.3758 -28.6433 104.443 -40.0396 115.913 -44.4475ZM72.6416 -12.9205C57.0334 2.6991 45.6371 18.7665 41.2291 30.2367C39.331 30.9492 37.5777 31.4579 35.9933 31.7533C34.1594 32.0952 32.6207 32.1376 31.3929 31.9256C30.1679 31.7141 29.4041 31.2801 28.9226 30.7985C28.441 30.317 28.007 29.5532 27.7955 28.3282C27.5835 27.1004 27.6259 25.5617 27.9678 23.7278C28.2632 22.1434 28.7719 20.3901 29.4845 18.492C40.9546 14.084 57.022 2.68771 72.6416 -12.9205ZM104.51 -62.6039C104.214 -61.0194 103.705 -59.2661 102.993 -57.368C91.5087 -52.9547 75.4161 -41.5359 59.7784 -25.8983C44.1408 -10.2606 32.722 5.83204 28.3087 17.3162C26.4106 18.0288 24.6573 18.5375 23.0728 18.8328C21.239 19.1747 19.7002 19.2172 18.4725 19.0052C17.2475 18.7937 16.4837 18.3596 16.0021 17.8781C15.5205 17.3965 15.0865 16.6327 14.875 15.4077C14.663 14.18 14.7055 12.6412 15.0473 10.8074C15.3427 9.22292 15.8514 7.46962 16.564 5.57148C28.0482 1.15817 44.1408 -10.2606 59.7784 -25.8983C75.4161 -41.5359 86.8349 -57.6285 91.2482 -69.1127C93.1463 -69.8253 94.8996 -70.334 96.4841 -70.6293C98.3179 -70.9712 99.8567 -71.0137 101.084 -70.8017C102.309 -70.5902 103.073 -70.1562 103.555 -69.6746C104.036 -69.193 104.47 -68.4292 104.682 -67.2042C104.894 -65.9765 104.851 -64.4377 104.51 -62.6039ZM33.3153 10.3373C32.1163 12.5159 31.0991 14.587 30.2724 16.5283C32.2137 15.7016 34.2847 14.6844 36.4634 13.4854C46.7818 7.80669 59.3087 -1.83458 71.5754 -14.1013C83.8421 -26.368 93.4834 -38.8949 99.1621 -49.2133C100.361 -51.392 101.378 -53.463 102.205 -55.4043C100.264 -54.5776 98.1926 -53.5604 96.014 -52.3614C85.6956 -46.6827 73.1687 -37.0415 60.902 -24.7747C48.6352 -12.508 38.994 0.0188819 33.3153 10.3373ZM89.2845 -68.3248C88.4578 -66.3835 87.4406 -64.3124 86.2416 -62.1338C80.5629 -51.8154 70.9216 -39.2885 58.6549 -27.0218C46.3882 -14.7551 33.8613 -5.11378 23.5429 0.564887C21.3643 1.76388 19.2932 2.78107 17.3519 3.60779C18.1786 1.66651 19.1958 -0.40455 20.3948 -2.58317C26.0735 -12.9016 35.7148 -25.4285 47.9815 -37.6952C60.2482 -49.9619 72.7751 -59.6032 83.0935 -65.2819C85.2721 -66.4809 87.3432 -67.4981 89.2845 -68.3248Z" fill="#275AF2"/>
</svg>
