<svg width="107" height="56" viewBox="0 0 107 56" fill="none" xmlns="http://www.w3.org/2000/svg">
<path fill-rule="evenodd" clip-rule="evenodd" d="M16.9878 81.5626C6.11068 90.8493 -1.25304e-05 103.445 -1.31044e-05 116.578L58 116.578L116 116.578C116 103.445 109.889 90.8493 99.0122 81.5626C88.1458 72.2851 73.4117 67.0691 58.0456 67.0588L116 67.0588C116 57.7882 109.889 48.8973 99.0122 42.342C88.1664 35.8056 73.4675 32.1252 58.1328 32.1041L116 32.1041C116 25.7029 109.889 19.564 99.0122 15.0377C88.1351 10.5114 73.3825 7.96861 58 7.96861C42.6174 7.96861 27.8649 10.5114 16.9878 15.0377C6.11068 19.564 -1.67616e-05 25.7029 -1.70414e-05 32.1041L57.8672 32.1041C42.5325 32.1252 27.8336 35.8056 16.9878 42.342C6.11068 48.8973 -1.81641e-05 57.7882 -1.85693e-05 67.0588L57.9544 67.0588C42.5883 67.0691 27.8542 72.2851 16.9878 81.5626ZM16.9878 -3.80133C6.11068 -0.679762 -1.57934e-05 3.55399 -1.59864e-05 7.96856L58 7.96856L116 7.96856C116 3.554 109.889 -0.679759 99.0122 -3.80133C88.1351 -6.9229 73.3825 -8.67658 58 -8.67658C42.6174 -8.67658 27.8649 -6.9229 16.9878 -3.80133Z" fill="#275AF2"/>
</svg>
