<svg width="156" height="56" viewBox="0 0 156 56" fill="none" xmlns="http://www.w3.org/2000/svg">
<path d="M95.5 -60.6766L103.046 -5.54236L129.999 -54.2277L117.118 -0.0907402L159.838 -35.7519L128.271 10.0762L180.988 -7.74459L134.997 23.5855L190.593 26.0118L136.39 38.6124L187.354 60.9582L132.26 53.1277L171.711 92.375L123.165 65.1708L145.774 116.019L110.334 73.1154L113.048 128.697L95.5 75.8884L77.9519 128.697L80.6656 73.1154L45.2257 116.019L67.8347 65.1708L19.2894 92.375L58.7401 53.1277L3.64565 60.9582L54.6102 38.6124L0.407387 26.0118L56.0026 23.5855L10.0119 -7.74459L62.7294 10.0762L31.1621 -35.7519L73.8821 -0.0907402L61.0014 -54.2277L87.9543 -5.54236L95.5 -60.6766Z" fill="#275AF2"/>
</svg>
