<svg width="219" height="56" viewBox="0 0 219 56" fill="none" xmlns="http://www.w3.org/2000/svg">
<path fill-rule="evenodd" clip-rule="evenodd" d="M73.1399 7.91418C73.1399 12.2651 69.8666 16.7724 63.3357 20.3347C56.9084 23.8405 47.8664 26.0824 37.7496 26.0824C30.96 26.0824 24.6545 25.0727 19.2986 23.3488C24.6331 18.2724 31.2238 13.5731 38.9133 9.37876C47.189 4.86475 56.6647 0.982677 67.0668 -2.11101C71.113 0.969781 73.1399 4.49042 73.1399 7.91418ZM64.513 -3.83304C44.5098 2.36248 27.9502 11.4831 16.789 22.4624C16.2206 22.2429 15.6653 22.0149 15.1237 21.7788C20.2115 16.5958 26.7215 11.8129 34.4655 7.58891C43.0682 2.89651 53.1005 -1.04578 64.1901 -4.02415C64.2987 -3.96071 64.4064 -3.89701 64.513 -3.83304ZM69.8609 -2.91677C73.4355 0.22966 75.4992 3.94047 75.4992 7.91418C75.4992 19.2861 58.5981 28.5049 37.7496 28.5049C30.2454 28.5049 23.2526 27.3105 17.3753 25.2513C15.1781 27.5127 13.2252 29.8433 11.5297 32.2323C13.1693 33.4862 15.0193 34.68 17.071 35.7991C26.4728 40.9273 39.6248 44.1734 54.2837 44.1734C68.9427 44.1734 82.0946 40.9273 91.4965 35.7991C100.98 30.6262 106.155 23.8583 106.155 16.9328C106.155 10.0073 100.98 3.23935 91.4965 -1.93349C88.7352 -3.43962 85.6505 -4.7834 82.2992 -5.93027C78.0325 -5.04771 73.8814 -4.04034 69.8609 -2.91677ZM70.8722 -5.67226C69.7496 -5.36992 68.6365 -5.05865 67.5333 -4.73863C67.4818 -4.77467 67.43 -4.81062 67.3781 -4.84647C68.5322 -5.1321 69.6971 -5.40744 70.8722 -5.67226ZM119.777 -12.5908C117.78 -12.6477 115.77 -12.6765 113.747 -12.6765C111.579 -12.6765 109.426 -12.6434 107.288 -12.5782C105.273 -12.6434 103.242 -12.6765 101.197 -12.6765C99.2165 -12.6765 97.2494 -12.6455 95.2972 -12.5843C93.46 -12.6455 91.6079 -12.6765 89.7425 -12.6765C87.5526 -12.6765 85.381 -12.6337 83.2304 -12.5496C81.238 -12.6337 79.2244 -12.6765 77.1925 -12.6765C75.1877 -12.6765 73.2008 -12.6348 71.2345 -12.553C69.4222 -12.6348 67.5891 -12.6765 65.7381 -12.6765C63.7146 -12.6765 61.7125 -12.6266 59.7356 -12.529C57.9426 -12.6266 56.1238 -12.6765 54.2837 -12.6765C51.2089 -12.6765 48.1939 -12.5371 45.2586 -12.2691C42.8318 -12.5363 40.3207 -12.6765 37.7496 -12.6765C16.9011 -12.6765 0 -3.45775 0 7.91418C0 9.31661 0.257046 10.6863 0.746841 12.01C0.255645 13.611 0 15.2556 0 16.9328C0 17.9365 0.0915578 18.9285 0.270366 19.9065C0.0914239 20.9848 0 22.0769 0 23.1806C0 24.1903 0.0765016 25.1902 0.226516 26.1787C0.0764236 27.2512 0 28.335 0 29.4285C0 30.5368 0.0785088 31.6351 0.232658 32.7219C0.0784379 33.8949 0 35.0794 0 36.2739C0 37.2914 0.0569161 38.3017 0.169106 39.3038C0.0568837 40.3686 0 41.4416 0 42.5218C0 43.6373 0.0606665 44.7451 0.180298 45.8442C0.0606343 47.0102 0 48.1849 0 49.3672C0 52.6418 0.465077 55.8571 1.36117 58.9946C4.74 94.9744 59.2942 123.581 126.098 123.581C195.079 123.581 251 93.0784 251 55.4521C251 17.8257 195.079 -12.6765 126.098 -12.6765C123.978 -12.6765 121.871 -12.6477 119.777 -12.5908ZM96.913 -8.39594C97.4612 -8.46833 98.0109 -8.53874 98.562 -8.60714C110.904 -6.63493 121.89 -3.00371 130.65 1.77416C144.306 9.22318 152.01 19.1107 152.01 29.4285C152.01 39.7462 144.306 49.6337 130.65 57.0828C117.09 64.479 98.1942 69.1274 77.1925 69.1274C56.1907 69.1274 37.295 64.479 23.7352 57.0828C15.7402 52.7218 9.78545 47.5251 6.22228 41.8957C6.53332 41.1096 6.871 40.3278 7.23494 39.5506C18.1396 51.122 40.2441 59.0378 65.7381 59.0378C102.044 59.0378 131.476 42.984 131.476 23.1806C131.476 9.53047 117.493 -2.33822 96.913 -8.39594ZM86.7527 -6.79822C88.1164 -7.04791 89.491 -7.28501 90.876 -7.50926C98.5116 -5.7403 105.358 -3.19518 111.077 -0.0756111C122.65 6.23654 129.086 14.5638 129.086 23.1806C129.086 31.7974 122.65 40.1247 111.077 46.4369C99.5954 52.6997 83.57 56.6473 65.7381 56.6473C47.9062 56.6473 31.8808 52.6997 20.3989 46.4369C15.4015 43.711 11.3619 40.6093 8.38484 37.2708C8.94166 36.2412 9.54499 35.2206 10.1939 34.2096C20.0485 41.6787 36.1249 46.5421 54.2837 46.5421C84.2638 46.5421 108.567 33.2856 108.567 16.9328C108.567 7.22092 99.9952 -1.39886 86.7527 -6.79822ZM9.68251 30.7164C11.2446 28.5306 13.0077 26.3997 14.9593 24.3304C14.4198 24.1072 13.8916 23.8763 13.3753 23.6379C11.5878 25.6239 10.0051 27.664 8.63711 29.7496C8.97259 30.075 9.3211 30.3973 9.68251 30.7164ZM8.32937 32.701C7.7754 33.5541 7.2517 34.4151 6.75898 35.2834C6.50987 34.9497 6.27104 34.6139 6.04259 34.2763C6.44779 33.4533 6.88563 32.636 7.35554 31.8251C7.67113 32.1204 7.99581 32.4123 8.32937 32.701ZM5.5288 37.5967C5.31664 37.3334 5.11011 37.0685 4.9093 36.802C4.70073 37.3164 4.50477 37.8327 4.32158 38.351C4.45581 38.6548 4.59681 38.9576 4.74455 39.2594C4.99347 38.7025 5.25495 38.1482 5.5288 37.5967ZM3.57908 42.1382C3.49291 41.9895 3.40822 41.8406 3.325 41.6912C3.26754 41.927 3.2127 42.163 3.16049 42.3994C3.20514 42.5767 3.25172 42.7538 3.30021 42.9307C3.39036 42.666 3.48333 42.4018 3.57908 42.1382ZM3.806 51.4152C3.83703 51.1454 3.87114 50.876 3.90834 50.6069C15.1427 70.6482 49.3219 85.2243 89.7425 85.2243C139.306 85.2243 179.485 63.3085 179.485 36.2739C179.485 16.1373 157.194 -1.15949 125.337 -8.67517C143.208 -6.25592 159.119 -1.21758 171.62 5.60135C189.616 15.4173 200.013 28.5789 200.013 42.5218C200.013 56.4646 189.616 69.6262 171.62 79.4421C153.719 89.2067 128.825 95.3201 101.197 95.3201C73.5691 95.3201 48.6749 89.2067 30.7731 79.4421C16.6615 71.7449 7.22302 61.9905 3.806 51.4152ZM3.70276 58.4591C3.66696 58.0406 3.6386 57.6213 3.61774 57.2014C15.4028 80.5609 54.6261 97.72 101.197 97.72C157.086 97.72 202.394 73.0069 202.394 42.5218C202.394 19.2358 175.958 -0.682464 138.564 -8.79134C159.633 -6.20188 178.398 -0.391199 193.028 7.58891C213.285 18.6382 225.099 33.5126 225.099 49.3672C225.099 65.2218 213.285 80.0962 193.028 91.1455C172.86 102.146 144.834 109.025 113.747 109.025C82.6595 109.025 54.6338 102.146 34.4655 91.1455C18.1365 82.2388 7.29381 70.8466 3.70276 58.4591ZM7.00279 70.8493C23.0248 94.5277 64.7711 111.411 113.747 111.411C176.567 111.411 227.494 83.633 227.494 49.3672C227.494 23.1322 197.641 0.70032 155.454 -8.37323C177.777 -5.4068 197.666 0.860907 213.282 9.37876C235.566 21.5336 248.621 37.9296 248.621 55.4521C248.621 72.9745 235.566 89.3705 213.282 101.525C191.091 113.63 160.271 121.19 126.098 121.19C91.9246 121.19 61.1047 113.63 38.9133 101.525C23.3215 93.0207 12.2477 82.4397 7.00279 70.8493ZM4.65752 46.7471C4.82923 46.0613 5.02101 45.3781 5.23261 44.6978C16.4419 60.4033 44.4342 71.5334 77.1925 71.5334C119.825 71.5334 154.385 52.6824 154.385 29.4285C154.385 12.0275 135.033 -2.90796 107.428 -9.3241C124.741 -7.40705 140.15 -2.73594 152.052 3.75593C167.966 12.4364 177.092 24.0373 177.092 36.2739C177.092 48.5105 167.966 60.1114 152.052 68.7919C136.227 77.4237 114.202 82.8365 89.7425 82.8365C65.2831 82.8365 43.2578 77.4237 27.4329 68.7919C16.1535 62.6395 8.28439 55.0201 4.65752 46.7471ZM12.1635 20.3347C12.3879 20.4571 12.6155 20.578 12.8462 20.6973C23.6016 9.45842 40.4832 0.240669 61.0744 -5.63789L60.9822 -5.68007C49.6108 -2.94684 39.3832 0.904942 30.7731 5.60135C22.9277 9.88071 16.5266 14.7959 11.8017 20.1345C11.9211 20.2016 12.0418 20.2683 12.1635 20.3347ZM11.1616 22.5311C9.60647 24.2966 8.19998 26.1084 6.95101 27.9618C6.80751 27.7946 6.66729 27.6267 6.53038 27.4581C7.5751 25.6034 8.81002 23.7839 10.227 22.0071C10.5329 22.1847 10.8445 22.3594 11.1616 22.5311ZM5.34174 29.7569C5.4316 29.8588 5.52249 29.9603 5.61442 30.0615C5.25915 30.6539 4.91979 31.2502 4.59661 31.8503C4.56682 31.7928 4.53733 31.7351 4.50814 31.6775C4.76366 31.0338 5.04163 30.3935 5.34174 29.7569ZM51.1001 -5.44922C33.1523 0.139269 18.6439 8.63813 9.73533 18.869C9.52796 18.7301 9.32495 18.5902 9.12631 18.4492C13.392 13.0242 19.5875 8.03522 27.4329 3.75593C34.2668 0.0283527 42.2569 -3.09892 51.1001 -5.44922ZM8.19525 20.7258C8.02871 20.6116 7.86435 20.4965 7.7022 20.3804C6.61352 21.9596 5.68525 23.5718 4.92395 25.2106C4.94967 25.252 4.97558 25.2935 5.00168 25.3349C5.94301 23.7664 7.00968 22.2288 8.19525 20.7258ZM6.59736 16.3836C6.80572 16.5815 7.02175 16.778 7.24546 16.9731C15.4496 6.5538 30.0942 -1.99994 48.4466 -7.19746C39.0913 -5.10576 30.7078 -2.02908 23.7352 1.77416C16.0144 5.98551 10.1963 10.9763 6.59736 16.3836ZM5.81655 18.9005C4.98027 20.1017 4.22818 21.3256 3.56423 22.57L3.53953 22.5098C4.00247 21.1449 4.60098 19.7965 5.33065 18.4695C5.48946 18.6143 5.65145 18.758 5.81655 18.9005ZM38.2541 -6.93504C23.083 -2.09125 11.2143 5.4965 4.93723 14.5796C4.86066 14.4832 4.78579 14.3865 4.71263 14.2896C7.54086 8.96687 12.8881 4.0212 20.3989 -0.0756111C25.526 -2.87217 31.5589 -5.2071 38.2541 -6.93504ZM17.071 -1.93349C21.4474 -4.32064 26.6365 -6.29994 32.4118 -7.73385C18.8419 -3.37216 8.39546 3.57195 3.34371 11.8596C5.2269 6.7663 9.92613 1.96371 17.071 -1.93349ZM2.3662 8.25925C2.36163 8.14413 2.35935 8.0291 2.35935 7.91418C2.35935 3.5633 5.6326 -0.944039 12.1635 -4.50635C17.2527 -7.28225 23.9811 -9.26576 31.5843 -9.97136C17.6558 -6.46921 6.91056 0.156338 2.3662 8.25925Z" fill="#275AF2"/>
</svg>
