<svg width="206" height="56" viewBox="0 0 206 56" fill="none" xmlns="http://www.w3.org/2000/svg">
<path fill-rule="evenodd" clip-rule="evenodd" d="M289.599 66.6282C296.841 60.996 300 55.4531 300 50.3235C300 45.1939 296.841 39.6509 289.599 34.0187C282.409 28.4264 271.754 23.2164 258.23 18.7679C245.347 14.5298 230.061 11.0478 213.072 8.56512C243.153 17.5097 263 32.8726 263 50.3235C263 67.7744 243.153 83.1372 213.072 92.0818C230.061 89.5992 245.347 86.1172 258.23 81.8791C271.754 77.4306 282.409 72.2206 289.599 66.6282ZM152 4.32349C157.983 4.32349 164.151 8.53605 169.046 16.975C173.881 25.3118 177 37.0934 177 50.3235C177 63.5536 173.881 75.3352 169.046 83.672C164.151 92.1109 157.983 96.3235 152 96.3235C146.017 96.3235 139.849 92.1109 134.954 83.672C130.119 75.3352 127 63.5536 127 50.3235C127 37.0934 130.119 25.3118 134.954 16.975C139.849 8.53605 146.017 4.32349 152 4.32349ZM163.76 96.0417C173.917 88.2639 181 70.7199 181 50.3235C181 29.9271 173.917 12.3831 163.76 4.60528C189.235 5.83372 211.946 11.0025 228.846 18.6152C248.681 27.5498 259 39.0687 259 50.3235C259 61.5783 248.681 73.0971 228.846 82.0318C211.946 89.6444 189.235 94.8132 163.76 96.0417ZM152 100.323C235.947 100.323 304 77.9377 304 50.3235C304 22.7092 235.947 0.323486 152 0.323486C68.0527 0.323486 0 22.7092 0 50.3235C0 77.9377 68.0527 100.323 152 100.323ZM140.24 4.60529C114.765 5.83372 92.0541 11.0025 75.154 18.6152C55.3191 27.5498 45 39.0687 45 50.3235C45 61.5783 55.3191 73.0971 75.154 82.0318C92.0541 89.6444 114.765 94.8132 140.24 96.0417C130.083 88.2639 123 70.7199 123 50.3235C123 29.9271 130.083 12.3831 140.24 4.60529ZM41 50.3235C41 67.7744 60.847 83.1372 90.9281 92.0818C73.9395 89.5992 58.6533 86.1172 45.7697 81.8791C32.2461 77.4306 21.5913 72.2206 14.4006 66.6282C7.15862 60.996 4 55.4531 4 50.3235C4 45.1939 7.15862 39.6509 14.4006 34.0187C21.5913 28.4264 32.2461 23.2164 45.7697 18.7679C58.6533 14.5298 73.9395 11.0478 90.9281 8.56512C60.847 17.5097 41 32.8726 41 50.3235Z" fill="#275AF2"/>
</svg>
